<svg width="512" height="512" xmlns="http://www.w3.org/2000/svg"><defs><linearGradient id="a" gradientUnits="userSpaceOnUse" x1="253.973" y1="406.071" x2="261.529" y2="131.054"><stop offset="0" stop-color="#789D47"/><stop offset="1" stop-color="#C6D556"/></linearGradient></defs><defs><linearGradient id="b" gradientUnits="userSpaceOnUse" x1="255.057" y1="441.364" x2="255.802" y2="270.639"><stop offset="0" stop-color="#6A9131"/><stop offset="1" stop-color="#9FBC56"/></linearGradient></defs><path fill="url(#a)" d="M282.858 104.486c32.072-4.95 58.037-3.464 90.34 8.068l13.128 5.033c7.951 3.61 39.351 16.626 33.579 26.649-5.812 10.089-18.901 18.906-25.706 27.587l.16.309c14.233 1.93 4.153 13.506-.973 18.812-11.528 11.932-23.842 22.382-37.021 32.425 7.085 3.324 7.431 9.193 2.174 14.448-53.13 53.107-116.806 74.296-192.026 74.136-22.202 23.176-41.134 50.351-56.493 78.558-1.996 3.666-3.674 7.72-6.035 11.16-3.436 5.005-12.064 2.94-12.55-3.288-.397-5.119 16.942-32.468 20.354-37.798 27.932-43.626 64.397-77.208 100.541-113.591l69.074-69.413c3.107-3.086 6.96-8.431 11.756-8.571 3.518-.103 6.647 3.584 6.549 6.986-.117 4.049-4.968 7.421-7.59 9.994l-94.194 94.228c-6.071 5.978-11.841 12.226-18.106 18.011l.223.014c10.605.63 23.907-1.448 34.528-2.987 53.924-7.814 87.899-26.036 127.324-60.94-4.397.516-10.932-.489-11.021-6.17-.084-5.298 5.288-7.791 9.035-10.329 14.513-9.827 28.351-20.913 40.481-33.578-17.762-4.701-.826-16.998 4.961-22.67 6.561-6.43 12.886-13.133 19.642-19.358-36.919-24.896-90.91-33.18-133.683-21.482-64.968 17.77-115.456 73.976-120.686 141.651-1.133 14.657.237 29.405-.809 43.569-.487 6.59-5.614 9.105-11.021 5.5-3.67-2.447-2.7-8.536-2.69-12.315l.023-13.096c-.049-18.593 1.432-35.395 6.353-53.488 17.586-64.661 59.793-115.052 140.379-128.064z" style="fill:url(#a)" transform="translate(-89.91 -89.187) scale(1.35111)"/><path fill="url(#b)" d="M337.429 270.551c8.256-.034 7.317 8.723 7.31 14.649l.001 31.85c.016 22.314-5.2 38.367-31.315 41.744l.017 69.164c.002 5.463 1.18 13.751-6.809 14.034-8.074.286-6.627-10.783-6.627-15.91l-.011-50.504c-.007-5.592-.191-11.195.001-16.784-3.934-.409-8.133-.019-12.102-.011l-108.075.011c-.045 1.834-.004 3.678 0 5.514v48.586c-.003 4.951.847 22.443-.902 25.526-1.851 3.264-5.773 4.41-9.009 2.444-4.974-3.022-3.401-10.235-3.404-15.069l.024-58.022c.009-5.078-.381-10.376-.017-15.427.668-9.291 12.484-6.849 18.988-6.85l117.76.008c19.617.038 27.784-3.999 27.766-25.318l.014-35.207c-.057-6.297-1.491-12.818 6.39-14.428z" style="fill:url(#b)" transform="translate(-89.91 -89.187) scale(1.35111)"/><path fill="#a7c957" d="M414.324 62.886c3.665-8.78 10.909-19.234 15.008-27.83 3.937-8.257 7.713-18.518 12.52-26.197 6.547-10.466 21.705-2.65 15.441 10.409-8.127 16.945-16.93 33.561-25.233 50.418z"/></svg>